<?xml version="1.0" encoding="utf-8"?><!-- Uploaded to: SVG Repo, www.svgrepo.com, Generator: SVG Repo Mixer Tools -->
<svg width="800px" height="800px" viewBox="0 0 24 24" fill="none" xmlns="http://www.w3.org/2000/svg">
<path d="M3.35288 15.0496L2.6227 15.2209L3.35288 15.0496ZM3.35288 8.95043L2.6227 8.77915L3.35288 8.95043ZM20.6471 8.95044L19.9169 9.12171L20.6471 8.95044ZM20.6471 15.0496L19.9169 14.8783L20.6471 15.0496ZM15.0496 20.6471L14.8783 19.9169L15.0496 20.6471ZM8.95044 20.6471L9.12171 19.9169L8.95044 20.6471ZM8.95043 3.35288L9.12171 4.08306L8.95043 3.35288ZM15.0496 3.35288L14.8783 4.08306L15.0496 3.35288ZM10.5559 12.6028L11.2692 12.8346C11.3729 12.5154 11.2519 12.1661 10.9729 11.9794L10.5559 12.6028ZM9.84196 14.7993L9.12869 14.5674L9.84196 14.7993ZM13.4441 12.6028L13.0271 11.9794C12.7481 12.1661 12.6271 12.5154 12.7308 12.8346L13.4441 12.6028ZM14.158 14.7993L13.4448 15.0311L14.158 14.7993ZM4.08306 14.8783C3.63898 12.9851 3.63898 11.0149 4.08306 9.12171L2.6227 8.77915C2.12577 10.8976 2.12577 13.1024 2.6227 15.2209L4.08306 14.8783ZM19.9169 9.12171C20.361 11.0149 20.361 12.9851 19.9169 14.8783L21.3773 15.2208C21.8742 13.1024 21.8742 10.8976 21.3773 8.77916L19.9169 9.12171ZM14.8783 19.9169C12.9851 20.361 11.0149 20.361 9.12171 19.9169L8.77916 21.3773C10.8976 21.8742 13.1024 21.8742 15.2208 21.3773L14.8783 19.9169ZM9.12171 4.08306C11.0149 3.63898 12.9851 3.63898 14.8783 4.08306L15.2208 2.6227C13.1024 2.12577 10.8976 2.12577 8.77916 2.6227L9.12171 4.08306ZM9.12171 19.9169C6.62161 19.3305 4.6695 17.3784 4.08306 14.8783L2.6227 15.2209C3.33924 18.2756 5.72441 20.6608 8.77916 21.3773L9.12171 19.9169ZM15.2208 21.3773C18.2756 20.6608 20.6608 18.2756 21.3773 15.2208L19.9169 14.8783C19.3305 17.3784 17.3784 19.3305 14.8783 19.9169L15.2208 21.3773ZM14.8783 4.08306C17.3784 4.6695 19.3305 6.62161 19.9169 9.12171L21.3773 8.77916C20.6608 5.72441 18.2756 3.33924 15.2208 2.6227L14.8783 4.08306ZM8.77916 2.6227C5.72441 3.33924 3.33924 5.72441 2.6227 8.77915L4.08306 9.12171C4.6695 6.6216 6.62161 4.6695 9.12171 4.08306L8.77916 2.6227ZM10.1493 10.4396C10.1493 9.41749 10.9779 8.58891 12 8.58891V7.08891C10.1495 7.08891 8.64932 8.58906 8.64932 10.4396H10.1493ZM12 8.58891C13.0221 8.58891 13.8507 9.41749 13.8507 10.4396H15.3507C15.3507 8.58906 13.8505 7.08891 12 7.08891V8.58891ZM10.9729 11.9794C10.4747 11.6462 10.1493 11.0807 10.1493 10.4396H8.64932C8.64932 11.6024 9.2423 12.6265 10.1389 13.2262L10.9729 11.9794ZM9.84262 12.371L9.12869 14.5674L10.5552 15.0311L11.2692 12.8346L9.84262 12.371ZM10.8313 16.9111H13.1687V15.4111H10.8313V16.9111ZM13.8507 10.4396C13.8507 11.0807 13.5253 11.6462 13.0271 11.9794L13.8611 13.2262C14.7577 12.6265 15.3507 11.6024 15.3507 10.4396H13.8507ZM14.8713 14.5674L14.1574 12.371L12.7308 12.8346L13.4448 15.0311L14.8713 14.5674ZM13.1687 16.9111C14.385 16.9111 15.2473 15.7242 14.8713 14.5674L13.4448 15.0311C13.5057 15.2186 13.3659 15.4111 13.1687 15.4111V16.9111ZM9.12869 14.5674C8.75271 15.7242 9.61496 16.9111 10.8313 16.9111V15.4111C10.6341 15.4111 10.4943 15.2186 10.5552 15.0311L9.12869 14.5674Z" fill="#363853"/>
</svg>